<svg width="45" height="45" viewBox="0 0 45 45" fill="none" xmlns="http://www.w3.org/2000/svg">
<g clip-path="url(#clip0)">
<path d="M0.421875 34.2422L13.4297 20.6719L3.44531 6.25781C2.95313 6.89062 2.60156 7.73438 2.53125 8.71875L-1.86265e-09 31.7109C-0.0703125 32.6953 0.0703125 33.5391 0.421875 34.2422Z" fill="#F1F6FA"/>
<path d="M44.0859 3.86719L25.2422 21.375L40.0781 41.4141C40.9219 40.7109 41.4844 39.6562 41.625 38.3906L45 7.03125C45.1406 5.76562 44.7188 4.57031 44.0859 3.86719Z" fill="#F1F6FA"/>
<path d="M18.0703 27.7031L13.4297 20.6719L0.421875 34.2422C0.703125 34.875 1.19531 35.2969 1.75781 35.4375L37.4766 42.1875C38.4609 42.3984 39.375 42.0469 40.0781 41.4141L25.2422 21.375L18.0703 27.7031Z" fill="#FBFDFF"/>
<path d="M41.6953 2.8123L4.99219 5.27324C4.42969 5.34355 3.86719 5.69511 3.44531 6.25761L13.5 20.6717L18.1406 27.7029L25.3125 21.3748L44.0859 3.86699C43.4531 3.16386 42.6094 2.74199 41.6953 2.8123Z" fill="#DFE9EF"/>
</g>
<defs>
<clipPath id="clip0">
<rect width="45" height="45" fill="white"/>
</clipPath>
</defs>
</svg>
